<svg width="434.3537963867187px" height="86.25746002197265px" xmlns="http://www.w3.org/2000/svg" viewBox="32.823101806640636 31.871269989013676 434.3537963867187 86.25746002197265" style="background: rgba(40, 41, 47, 0);" preserveAspectRatio="xMidYMid"><defs><filter id="editing-hole" x="-100%" y="-100%" width="300%" height="300%"><feFlood flood-color="#000000" result="black"></feFlood><feMorphology operator="dilate" radius="2" in="SourceGraphic" result="erode"></feMorphology><feGaussianBlur in="erode" stdDeviation="4" result="blur"></feGaussianBlur><feOffset in="blur" dx="2" dy="2" result="offset"></feOffset><feComposite operator="atop" in="offset" in2="black" result="merge"></feComposite><feComposite operator="in" in="merge" in2="SourceGraphic" result="inner-shadow"></feComposite></filter></defs><g filter="url(#editing-hole)"><g transform="translate(98.61407166719437, 89.72000026702881)"><path d="M4.28 0L-0.55 0L7.06-27.72L15.83-27.72L17.77-11.89L25.58-27.72L32.93-27.72L33.68-6.97L33.68-6.97Q33.85-2.86 35.87-1.60L35.87-1.60L35.87-1.60Q35.41-0.76 34.06 0.04L34.06 0.04L34.06 0.04Q32.72 0.84 30.93 0.84L30.93 0.84L30.93 0.84Q29.15 0.84 28.10 0.34L28.10 0.34L28.10 0.34Q27.05-0.17 26.46-1.01L26.46-1.01L26.46-1.01Q25.41-2.52 25.41-5.42L25.41-5.42L25.41-18.40L17.14 0L11.93 0L8.99-18.86L4.28 0ZM55.61-6.47L55.61-6.47L55.61-6.47Q56.41-5.46 56.41-3.82L56.41-3.82L56.41-3.82Q56.41-1.55 54.73-0.36L54.73-0.36L54.73-0.36Q53.05 0.84 50.40 0.84L50.40 0.84L50.40 0.84Q48.89 0.84 46.58 0.50L46.58 0.50L46.58 0.50Q42.04-0.21 40.66-0.21L40.66-0.21L40.66-0.21Q39.27-0.21 38.72-0.15L38.72-0.15L38.72-0.15Q38.18-0.08 37.30 0L37.30 0L42.46-27.72L60.56-27.72L60.56-27.72Q60.56-25.16 59.33-23.81L59.33-23.81L59.33-23.81Q58.09-22.47 55.65-22.47L55.65-22.47L55.65-22.47Q53.21-22.47 50.74-23.60L50.74-23.60L49.43-16.25L56.91-16.25L56.91-16.25Q56.91-14.03 55.82-12.79L55.82-12.79L55.82-12.79Q54.73-11.55 52.90-11.55L52.90-11.55L52.90-11.55Q51.07-11.55 49.94-11.97L49.94-11.97L49.94-11.97Q48.80-12.39 48.68-12.52L48.68-12.52L47.17-4.58L47.17-4.58Q48.17-4.45 50.06-4.45L50.06-4.45L50.06-4.45Q53.30-4.45 55.61-6.47ZM87.53-17.43L87.53-17.43L87.53-17.43Q87.53 0.46 68.12 0.46L68.12 0.46L68.12 0.46Q65.02 0.46 59.89-0.29L59.89-0.29L64.60-25.12L64.60-25.12Q64.93-26.80 65.14-27.76L65.14-27.76L65.14-27.76Q71.53-28.22 74.36-28.22L74.36-28.22L74.36-28.22Q77.20-28.22 79.80-27.64L79.80-27.64L79.80-27.64Q82.40-27.05 84.13-25.75L84.13-25.75L84.13-25.75Q87.53-23.18 87.53-17.43ZM78.88-18.98L78.88-18.98L78.88-18.98Q78.88-25.24 74.38-25.24L74.38-25.24L73.96-25.24L73.96-25.24Q73.75-25.24 73.54-25.20L73.54-25.20L69.22-2.65L69.22-2.65Q69.38-2.56 69.55-2.56L69.55-2.56L69.89-2.56L69.89-2.56Q71.44-2.56 73.06-3.53L73.06-3.53L73.06-3.53Q74.68-4.49 75.94-6.47L75.94-6.47L75.94-6.47Q78.88-11.05 78.88-18.98ZM98.36 0L89.21 0L94.54-27.72L103.78-27.72L98.36 0ZM105.50-6.22L105.50-6.22L105.50-6.22Q105.50-7.85 105.92-9.95L105.92-9.95L109.33-27.72L118.61-27.72L115.25-9.83L115.25-9.83Q114.87-7.85 114.87-6.41L114.87-6.41L114.87-6.41Q114.87-4.96 115.48-4.20L115.48-4.20L115.48-4.20Q116.09-3.44 117.22-3.44L117.22-3.44L117.22-3.44Q118.36-3.44 119.07-3.74L119.07-3.74L119.07-3.74Q119.78-4.03 120.37-4.75L120.37-4.75L120.37-4.75Q121.51-6.17 122.22-9.83L122.22-9.83L125.62-27.72L131.96-27.72L128.60-9.87L128.60-9.87Q127.43-3.91 124.19-1.51L124.19-1.51L124.19-1.51Q121.04 0.84 114.83 0.84L114.83 0.84L114.83 0.84Q110.17 0.84 107.69-1.18L107.69-1.18L107.69-1.18Q105.50-2.94 105.50-6.22ZM136.37 0L131.54 0L139.15-27.72L147.92-27.72L149.86-11.89L157.67-27.72L165.02-27.72L165.77-6.97L165.77-6.97Q165.94-2.86 167.96-1.60L167.96-1.60L167.96-1.60Q167.50-0.76 166.15 0.04L166.15 0.04L166.15 0.04Q164.81 0.84 163.02 0.84L163.02 0.84L163.02 0.84Q161.24 0.84 160.19 0.34L160.19 0.34L160.19 0.34Q159.14-0.17 158.55-1.01L158.55-1.01L158.55-1.01Q157.50-2.52 157.50-5.42L157.50-5.42L157.50-18.40L149.23 0L144.02 0L141.08-18.86L136.37 0ZM194.80-19.40L194.80-19.40L194.80-19.40Q195.43-20.66 195.43-21.84L195.43-21.84L195.43-21.84Q195.43-23.02 195.30-23.67L195.30-23.67L195.30-23.67Q195.17-24.32 194.88-24.82L194.88-24.82L194.88-24.82Q194.25-25.91 192.99-25.91L192.99-25.91L192.99-25.91Q191.44-25.91 190.18-24.78L190.18-24.78L190.18-24.78Q188.83-23.60 188.83-21.76L188.83-21.76L188.83-21.76Q188.83-20.58 189.65-19.68L189.65-19.68L189.65-19.68Q190.47-18.77 191.73-17.93L191.73-17.93L191.73-17.93Q192.99-17.09 194.42-16.25L194.42-16.25L194.42-16.25Q195.85-15.41 197.11-14.41L197.11-14.41L197.11-14.41Q200.00-12.10 200.00-8.99L200.00-8.99L200.00-8.99Q200.00-6.89 198.89-5.10L198.89-5.10L198.89-5.10Q197.78-3.32 195.93-2.02L195.93-2.02L195.93-2.02Q191.90 0.84 186.56 0.84L186.56 0.84L186.56 0.84Q182.24 0.84 180.01-0.57L180.01-0.57L180.01-0.57Q177.79-1.97 177.79-4.12L177.79-4.12L177.79-4.12Q177.79-7.94 180.77-8.90L180.77-8.90L180.77-8.90Q181.61-9.20 182.89-9.20L182.89-9.20L182.89-9.20Q184.17-9.20 185.64-8.65L185.64-8.65L185.64-8.65Q184.97-6.93 184.97-5.38L184.97-5.38L184.97-5.38Q184.97-2.02 187.36-2.02L187.36-2.02L187.36-2.02Q188.92-2.02 190.20-3.15L190.20-3.15L190.20-3.15Q191.48-4.28 191.48-5.57L191.48-5.57L191.48-5.57Q191.48-6.85 190.66-7.77L190.66-7.77L190.66-7.77Q189.84-8.69 188.62-9.43L188.62-9.43L188.62-9.43Q187.40-10.16 186.00-10.88L186.00-10.88L186.00-10.88Q184.59-11.59 183.37-12.60L183.37-12.60L183.37-12.60Q180.52-14.91 180.52-18.61L180.52-18.61L180.52-18.61Q180.52-21 181.69-22.87L181.69-22.87L181.69-22.87Q182.87-24.74 184.76-26.00L184.76-26.00L184.76-26.00Q188.54-28.56 193.18-28.56L193.18-28.56L193.18-28.56Q197.82-28.56 200.07-27.17L200.07-27.17L200.07-27.17Q202.31-25.79 202.31-23.44L202.31-23.44L202.31-23.44Q202.31-21.38 200.72-20.08L200.72-20.08L200.72-20.08Q199.33-18.98 197.65-18.98L197.65-18.98L197.65-18.98Q195.97-18.98 194.80-19.40ZM202.78-0.21L202.78-0.21L208.07-27.72L208.07-27.72Q213.02-28.14 216.22-28.14L216.22-28.14L216.22-28.14Q219.41-28.14 221.47-27.87L221.47-27.87L221.47-27.87Q223.52-27.59 224.91-26.88L224.91-26.88L224.91-26.88Q227.68-25.54 227.68-21.84L227.68-21.84L227.68-21.84Q227.68-19.70 225.83-17.89L225.83-17.89L225.83-17.89Q224.11-16.25 222.22-15.88L222.22-15.88L222.22-15.88Q224.24-15.54 225.67-14.03L225.67-14.03L225.67-14.03Q227.18-12.43 227.18-9.95L227.18-9.95L227.18-9.95Q227.18-5.17 223.61-2.37L223.61-2.37L223.61-2.37Q220.04 0.42 213.02 0.42L213.02 0.42L213.02 0.42Q208.19 0.42 202.78-0.21ZM214.20-13.52L212.10-2.65L212.10-2.65Q212.48-2.60 212.56-2.60L212.56-2.60L212.94-2.60L212.94-2.60Q216.38-2.60 217.85-4.87L217.85-4.87L217.85-4.87Q218.95-6.64 218.95-9.87L218.95-9.87L218.95-9.87Q218.95-11.59 217.83-12.52L217.83-12.52L217.83-12.52Q216.72-13.44 214.20-13.52L214.20-13.52ZM220.58-21.80L220.58-21.80L220.58-21.80Q220.58-25.28 217.22-25.28L217.22-25.28L216.85-25.28L216.85-25.28Q216.68-25.28 216.43-25.24L216.43-25.24L214.75-16.38L215.17-16.38L215.17-16.38Q220.58-16.51 220.58-21.80ZM230.75-6.22L230.75-6.22L230.75-6.22Q230.75-7.85 231.17-9.95L231.17-9.95L234.57-27.72L243.85-27.72L240.49-9.83L240.49-9.83Q240.11-7.85 240.11-6.41L240.11-6.41L240.11-6.41Q240.11-4.96 240.72-4.20L240.72-4.20L240.72-4.20Q241.33-3.44 242.47-3.44L242.47-3.44L242.47-3.44Q243.60-3.44 244.31-3.74L244.31-3.74L244.31-3.74Q245.03-4.03 245.62-4.75L245.62-4.75L245.62-4.75Q246.75-6.17 247.46-9.83L247.46-9.83L250.87-27.72L257.21-27.72L253.85-9.87L253.85-9.87Q252.67-3.91 249.44-1.51L249.44-1.51L249.44-1.51Q246.29 0.84 240.07 0.84L240.07 0.84L240.07 0.84Q235.41 0.84 232.93-1.18L232.93-1.18L232.93-1.18Q230.75-2.94 230.75-6.22ZM271.66-15.16L271.66-15.16L271.66-15.16Q277.20-13.73 277.20-8.32L277.20-8.32L277.20-8.32Q277.20-4.41 273.88-1.85L273.88-1.85L273.88-1.85Q270.35 0.84 264.56 0.84L264.56 0.84L264.56 0.84Q261.11 0.84 259.06-0.48L259.06-0.48L259.06-0.48Q257.00-1.81 257.00-3.99L257.00-3.99L257.00-3.99Q257.00-6.17 258.64-7.52L258.64-7.52L258.64-7.52Q259.48-5.96 260.97-5.25L260.97-5.25L260.97-5.25Q262.46-4.54 264.37-4.54L264.37-4.54L264.37-4.54Q266.28-4.54 267.50-5.54L267.50-5.54L267.50-5.54Q268.72-6.55 268.72-8.53L268.72-8.53L268.72-8.53Q268.72-12.26 263.59-12.26L263.59-12.26L264.31-16.04L264.31-16.04Q270.44-17.05 270.44-20.08L270.44-20.08L270.44-20.08Q270.44-21.29 269.60-21.97L269.60-21.97L269.60-21.97Q268.76-22.64 267.16-22.64L267.16-22.64L267.16-22.64Q264.35-22.64 261.87-20.03L261.87-20.03L261.87-20.03Q261.07-20.24 260.74-20.81L260.74-20.81L260.74-20.81Q260.40-21.38 260.40-22.55L260.40-22.55L260.40-22.55Q260.40-23.73 261.24-24.84L261.24-24.84L261.24-24.84Q262.08-25.96 263.55-26.80L263.55-26.80L263.55-26.80Q266.70-28.56 270.94-28.56L270.94-28.56L270.94-28.56Q274.18-28.56 276.23-26.88L276.23-26.88L276.23-26.88Q278.38-25.16 278.38-22.60L278.38-22.60L278.38-22.60Q278.38-20.29 276.53-18.27L276.53-18.27L276.53-18.27Q274.68-16.25 271.66-15.16ZM301.43-11.05L301.43-11.05L301.43-11.05Q301.90-10.16 301.90-8.44L301.90-8.44L301.90-8.44Q301.90-6.72 300.62-5.52L300.62-5.52L300.62-5.52Q299.33-4.33 296.52-4.33L296.52-4.33L296.27-4.33L295.60 0L295.60 0Q294.46 0.84 292.45 0.84L292.45 0.84L292.45 0.84Q289.84 0.84 289.00-0.76L289.00-0.76L289.00-0.76Q288.67-1.34 288.67-1.85L288.67-1.85L288.67-1.85Q288.67-2.44 288.75-3.11L288.75-3.11L289.04-4.70L279.38-5.71L279.38-11.00L295.09-28.60L295.09-28.56L295.13-28.60L300.97-27.97L300.97-27.97Q299.00-19.91 297.32-10.63L297.32-10.63L298.28-10.63L298.28-10.63Q300.68-10.63 301.43-11.05ZM292.99-21.55L283.88-10.92L290.22-10.71L290.22-10.71Q291.61-16.88 292.99-21.55L292.99-21.55Z" fill="#0a0a0a"></path></g></g><style>text {
  font-size: 64px;
  font-family: Arial Black;
  dominant-baseline: central;
  text-anchor: middle;
}</style></svg>